<?xml version="1.0" encoding="utf-8"?>
<!-- Generator: Adobe Illustrator 26.0.1, SVG Export Plug-In . SVG Version: 6.00 Build 0)  -->
<svg version="1.1" id="Calque_1" xmlns="http://www.w3.org/2000/svg" xmlns:xlink="http://www.w3.org/1999/xlink" x="0px" y="0px"
	 viewBox="0 0 48 48" style="enable-background:new 0 0 48 48;" xml:space="preserve">
<style type="text/css">
	.st0{fill:#F1F3F5;}
</style>
<path class="st0" d="M10.4,5.7c5.5,4.1,11.4,12.5,13.6,17c2.2-4.5,8.1-12.9,13.6-17c4-3,10.4-5.3,10.4,2.1c0,1.5-0.8,12.3-1.3,14.1
	c-1.7,6.1-8,7.7-13.5,6.7c9.7,1.7,12.2,7.1,6.8,12.6c-10.1,10.4-14.6-2.6-15.7-5.9c-0.2-0.6-0.3-0.9-0.3-0.7c0-0.2-0.1,0-0.3,0.7
	c-1.1,3.3-5.6,16.3-15.7,5.9c-5.3-5.5-2.9-10.9,6.8-12.6C9.3,29.5,3,28,1.3,21.8C0.8,20.1,0,9.2,0,7.8C0,0.4,6.4,2.7,10.4,5.7
	L10.4,5.7z"/>
</svg>
